<svg xmlns="http://www.w3.org/2000/svg" version="1.0" width="752.000000pt" height="440.000000pt" viewBox="0 0 752.000000 440.000000" preserveAspectRatio="xMidYMid meet">

<g transform="translate(0.000000,440.000000) scale(0.100000,-0.100000)" fill="#000000" stroke="none">
<path d="M0 2200 l0 -2200 49 0 50 0 3 179 c2 99 6 182 9 185 3 4 39 7 80 8 70 1 167 25 194 48 7 6 32 10 55 8 23 -1 44 3 48 9 16 24 112 38 112 16 0 -16 15 -17 42 -2 12 6 50 12 86 13 53 2 69 -1 85 -17 17 -17 27 -18 76 -12 59 9 75 9 184 -1 59 -5 67 -8 67 -27 0 -11 -7 -29 -17 -39 -15 -16 -15 -18 0 -18 23 0 29 -44 25 -208 l-3 -142 28 0 27 0 0 290 0 290 525 0 525 0 0 -107 c1 -60 0 -190 0 -290 l-1 -183 30 0 31 0 2 166 3 166 45 -36 c55 -44 74 -47 60 -10 -6 14 -10 37 -10 52 -1 26 -1 26 -15 7 -13 -17 -17 -17 -29 -5 -8 8 -17 31 -20 50 -5 33 -5 34 5 8 13 -34 27 -36 39 -6 7 18 9 19 9 6 1 -11 9 -18 21 -18 18 0 20 7 20 75 0 60 -3 75 -15 75 -8 0 -15 -8 -15 -17 -1 -17 -1 -17 -11 0 -8 14 -18 17 -36 12 -21 -5 -24 -3 -19 10 3 9 6 21 6 26 0 15 47 10 54 -6 3 -8 14 -15 24 -15 10 0 29 -11 42 -25 43 -46 56 -25 14 24 l-25 30 23 6 c13 3 214 4 448 3 l425 -3 0 -288 -1 -287 28 0 28 0 0 290 0 290 440 0 c345 0 440 -3 441 -12 0 -7 0 -138 -1 -291 -1 -274 -1 -277 19 -277 24 0 24 -2 25 158 1 86 -2 111 -11 107 -7 -2 -13 0 -13 5 0 6 7 10 16 10 14 0 16 8 11 42 -3 24 -11 44 -16 46 -6 2 -11 30 -11 63 0 45 3 59 15 59 9 0 12 6 9 15 -4 8 -10 12 -15 9 -5 -3 -9 9 -9 26 0 17 4 29 9 25 5 -3 12 -2 14 2 3 5 31 8 64 8 l58 0 3 -51 c2 -40 -1 -54 -17 -69 -19 -17 -20 -19 -4 -30 12 -9 18 -29 19 -71 2 -87 -5 -125 -25 -123 -9 1 -23 1 -31 0 -13 -1 -13 -2 0 -11 8 -5 23 -7 32 -4 13 4 18 -4 24 -41 3 -26 4 -67 1 -91 -7 -66 0 -84 33 -84 22 0 29 5 32 22 4 31 22 33 38 3 12 -23 19 -25 85 -25 87 0 104 12 84 59 -8 17 -18 27 -26 24 -7 -3 -20 0 -28 7 -12 10 -15 9 -15 -8 0 -23 -22 -42 -28 -24 -2 7 -25 12 -58 12 l-54 0 0 255 0 255 303 0 c166 0 400 -3 520 -7 l217 -6 0 -209 c0 -178 -2 -208 -15 -208 -8 0 -15 -4 -15 -10 0 -5 -16 -10 -35 -10 -19 0 -35 -4 -35 -10 0 -5 6 -10 14 -10 8 0 17 -14 21 -30 8 -37 23 -39 27 -3 2 17 10 29 21 31 14 3 17 -5 17 -52 l0 -56 621 0 c576 0 674 4 579 25 -17 4 -30 13 -30 21 0 11 4 12 19 4 11 -5 29 -10 40 -10 14 0 21 -6 21 -20 0 -11 7 -20 15 -20 8 0 15 9 15 20 0 11 5 20 11 20 8 0 8 4 -1 15 -14 17 -7 31 20 38 17 4 20 0 20 -29 0 -19 -4 -34 -10 -34 -5 0 -10 -7 -10 -15 0 -13 43 -15 325 -15 l325 0 0 2091 c0 2076 0 2091 -20 2116 -11 14 -20 33 -20 43 0 10 9 29 20 43 13 16 20 40 20 66 l0 41 -3760 0 -3760 0 0 -2200z m1075 2070 c3 -5 2 -10 -4 -10 -5 0 -13 5 -16 10 -3 6 -2 10 4 10 5 0 13 -4 16 -10z m738 -42 c-2 -4 -12 0 -23 9 -10 9 -17 20 -14 24 6 10 42 -23 37 -33z m37 5 c0 -43 -5 -41 -13 5 -4 18 -2 32 3 32 6 0 10 -16 10 -37z m982 15 c-7 -7 -12 -8 -12 -2 0 6 3 14 7 17 3 4 9 5 12 2 2 -3 -1 -11 -7 -17z m549 -19 c-9 -23 -10 -22 -10 11 -1 23 2 31 9 24 7 -7 7 -19 1 -35z m58 9 c-1 -31 -1 -31 -8 -8 -5 14 -6 28 -4 33 9 15 13 6 12 -25z m258 -20 c-2 -13 -4 -5 -4 17 -1 22 1 32 4 23 2 -10 2 -28 0 -40z m-1317 22 c10 0 20 6 23 13 2 6 4 -3 3 -21 -1 -26 -3 -29 -12 -17 -14 18 -31 19 -37 3 -3 -7 -5 1 -5 17 0 17 2 24 5 18 2 -7 13 -13 23 -13z m299 -12 c-1 -31 -1 -31 -8 -8 -5 14 -6 28 -4 33 9 15 13 6 12 -25z m244 -19 c-5 -5 -8 3 -7 19 3 37 6 41 11 13 3 -13 1 -27 -4 -32z m-1600 34 c-7 -2 -19 -2 -25 0 -7 3 -2 5 12 5 14 0 19 -2 13 -5z m35 -7 c-7 -8 -15 -12 -17 -11 -5 6 10 25 20 25 5 0 4 -6 -3 -14z m29 -23 c-3 -10 -5 -4 -5 12 0 17 2 24 5 18 2 -7 2 -21 0 -30z m73 5 c0 -6 -7 -5 -15 2 -8 7 -15 17 -15 22 0 6 7 5 15 -2 8 -7 15 -17 15 -22z m50 22 c0 -5 -4 -10 -10 -10 -5 0 -10 5 -10 10 0 6 5 10 10 10 6 0 10 -4 10 -10z m397 -22 c-3 -7 -5 -2 -5 12 0 14 2 19 5 13 2 -7 2 -19 0 -25z m44 7 c5 3 6 -1 2 -10 -5 -13 -7 -14 -14 -3 -5 7 -8 20 -8 28 1 11 3 10 6 -3 2 -9 9 -15 14 -12z m36 -7 c-3 -7 -5 -2 -5 12 0 14 2 19 5 13 2 -7 2 -19 0 -25z m36 17 c-3 -9 -8 -14 -10 -11 -3 3 -2 9 2 15 9 16 15 13 8 -4z m416 -12 c0 -25 -1 -25 -8 -8 -5 11 -7 23 -4 28 8 14 13 7 12 -20z m147 16 c4 -7 0 -9 -14 -5 -15 5 -22 2 -25 -11 -4 -14 -5 -13 -6 5 -1 16 5 22 18 22 11 0 23 -5 27 -11z m411 -15 c2 -13 1 -15 -4 -4 -3 8 -11 19 -17 23 -7 6 -6 7 4 4 8 -2 16 -12 17 -23z m53 15 c0 -5 -4 -8 -9 -4 -6 3 -14 -3 -20 -12 -9 -16 -10 -16 -11 5 0 15 6 22 20 22 11 0 20 -5 20 -11z m610 7 c0 -3 -4 -8 -10 -11 -5 -3 -10 -1 -10 4 0 6 5 11 10 11 6 0 10 -2 10 -4z m-2504 -32 c-4 -9 -9 -15 -11 -12 -3 3 -3 13 1 22 4 9 9 15 11 12 3 -3 3 -13 -1 -22z m1704 16 c0 -5 -5 -10 -11 -10 -5 0 -7 5 -4 10 3 6 8 10 11 10 2 0 4 -4 4 -10z m-110 -15 c0 -8 -2 -15 -4 -15 -2 0 -6 7 -10 15 -3 8 -1 15 4 15 6 0 10 -7 10 -15z m80 11 c0 -3 -4 -8 -10 -11 -5 -3 -10 -1 -10 4 0 6 5 11 10 11 6 0 10 -2 10 -4z m651 -23 c-8 -15 -10 -15 -11 -2 0 17 10 32 18 25 2 -3 -1 -13 -7 -23z m3394 -153 c-3 -5 -13 -10 -21 -10 -8 0 -14 5 -14 10 0 6 9 10 21 10 11 0 17 -4 14 -10z m-3175 -50 c12 -8 11 -10 -7 -10 -12 0 -25 5 -28 10 -8 13 15 13 35 0z m3110 -41 c0 -6 -4 -7 -10 -4 -5 3 -10 11 -10 16 0 6 5 7 10 4 6 -3 10 -11 10 -16z m-3055 1 c3 -6 -1 -7 -9 -4 -18 7 -21 14 -7 14 6 0 13 -4 16 -10z m450 -100 c3 -5 1 -10 -4 -10 -6 0 -11 5 -11 10 0 6 2 10 4 10 3 0 8 -4 11 -10z m-3717 -277 c-24 -6 -23 -20 2 -28 22 -7 26 -20 10 -30 -5 -3 -10 1 -10 9 0 9 -7 16 -15 16 -8 0 -15 9 -15 20 0 14 6 20 23 19 16 -1 18 -2 5 -6z m112 -5 c-24 -10 -24 -10 -5 -18 11 -5 14 -9 8 -9 -7 -1 -13 -8 -13 -16 0 -8 -4 -15 -10 -15 -5 0 -10 16 -10 35 0 32 3 35 28 34 l27 0 -25 -11z m135 -25 c1 -23 -3 -29 -11 -22 -6 5 -19 7 -28 3 -12 -5 -16 0 -16 18 0 31 9 40 35 36 15 -2 20 -11 20 -35z m178 30 c-27 -5 -31 -22 -5 -24 15 -1 15 -2 -1 -6 -11 -3 -16 -11 -13 -19 3 -8 1 -14 -4 -14 -6 0 -10 16 -10 35 0 32 2 35 28 34 23 -2 24 -2 5 -6z m107 -3 c-13 -9 -13 -12 3 -21 18 -11 24 -39 7 -39 -5 0 -9 4 -7 9 1 5 -7 16 -17 24 -21 16 -14 37 12 37 15 0 15 -2 2 -10z m-213 -37 c-3 -10 -5 -4 -5 12 0 17 2 24 5 18 2 -7 2 -21 0 -30z m3828 7 c3 -5 -1 -10 -10 -10 -9 0 -13 5 -10 10 3 6 8 10 10 10 2 0 7 -4 10 -10z m-3870 -186 c284 -5 301 -8 305 -44 5 -32 -1 -50 -25 -78 l-25 -30 30 -57 c16 -31 30 -63 30 -70 0 -8 4 -16 10 -20 10 -6 90 233 90 271 0 23 3 24 63 24 61 0 62 -1 63 -27 1 -32 56 -232 76 -278 12 -27 13 -14 16 124 2 104 -1 158 -9 167 -10 12 2 14 74 14 77 0 85 -2 80 -18 -2 -10 10 -37 29 -62 l33 -45 3 48 c2 27 -2 55 -9 63 -10 12 -5 14 30 14 39 0 41 -1 31 -20 -13 -24 -10 -295 4 -322 7 -16 3 -18 -33 -18 -39 0 -53 11 -31 25 6 3 10 14 10 24 0 19 -143 223 -160 229 -13 5 -13 -245 0 -253 28 -18 0 -25 -95 -25 l-105 0 15 24 c15 22 15 27 0 55 -16 33 -68 66 -90 57 -17 -6 -37 -98 -24 -111 20 -20 5 -25 -86 -25 -86 0 -113 8 -86 25 16 10 -41 145 -61 145 -13 0 -9 -145 4 -158 9 -9 -4 -12 -60 -12 -66 0 -88 9 -62 25 11 7 14 282 4 309 -12 32 -21 15 -16 -31 l5 -48 -27 33 c-15 17 -36 32 -47 32 -18 0 -19 -9 -19 -137 0 -127 2 -138 22 -160 l21 -23 -81 0 c-45 0 -82 3 -82 6 0 3 7 12 15 20 12 12 15 44 15 155 0 126 -2 139 -17 139 -23 0 -33 -8 -62 -45 -22 -29 -22 -29 -16 -4 6 23 1 28 -38 49 -43 23 -46 23 -71 7 -51 -34 -21 -67 91 -101 37 -12 63 -54 63 -102 0 -110 -61 -141 -248 -124 l-43 4 6 46 c4 25 8 51 10 58 6 18 25 15 32 -5 13 -39 46 -63 84 -63 43 0 62 18 57 55 -2 23 -13 31 -63 51 -67 27 -115 72 -115 108 0 43 22 88 54 107 25 17 42 19 91 14 33 -3 186 -8 340 -11z m1179 -34 c3 -19 6 -46 6 -60 0 -25 -1 -24 -20 6 -41 64 -111 68 -154 11 -30 -41 -29 -149 2 -199 23 -37 40 -48 73 -48 37 0 53 98 25 153 l-15 27 71 0 c59 0 69 -2 59 -14 -8 -9 -11 -45 -9 -98 2 -66 6 -83 18 -83 13 0 15 24 18 148 1 87 -2 155 -8 167 -10 18 -5 19 111 22 67 2 123 0 124 -3 2 -3 7 -30 10 -60 l7 -54 -20 31 c-22 34 -77 59 -106 48 -13 -5 -16 -16 -14 -43 3 -31 6 -36 27 -33 13 1 30 10 37 20 11 15 13 12 19 -23 3 -22 8 -51 11 -65 l6 -25 -30 28 c-20 19 -38 28 -53 25 -23 -3 -24 -7 -23 -70 2 -90 6 -98 50 -98 35 0 61 20 112 83 16 22 17 208 0 225 -9 9 17 12 119 12 109 0 134 -3 148 -17 22 -21 13 -69 -20 -103 l-24 -25 27 -55 c15 -30 36 -75 47 -100 10 -25 20 -48 23 -52 2 -5 -30 -8 -72 -8 -72 0 -76 1 -64 19 10 16 6 30 -21 85 -18 36 -36 66 -42 66 -12 0 -12 -137 1 -145 26 -16 4 -25 -60 -25 -64 0 -86 9 -60 25 6 3 10 23 9 43 l-1 37 -13 -30 c-8 -16 -14 -40 -15 -52 l0 -23 -232 0 c-206 0 -238 3 -274 19 -67 30 -88 71 -92 172 -4 81 -3 87 24 118 41 49 76 61 171 58 l81 -2 6 -35z m2860 -206 c23 -9 22 -70 -2 -76 -26 -7 -52 15 -52 44 0 37 16 46 54 32z m16 -125 c0 -15 -3 -40 -6 -57 -6 -28 -7 -29 -23 -13 -14 14 -15 18 -3 27 11 8 12 15 3 32 -16 29 -14 38 9 38 15 0 20 -7 20 -27z m-1073 -5 c-3 -3 -12 -4 -19 -1 -8 3 -5 6 6 6 11 1 17 -2 13 -5z m998 -4 c3 -5 2 -10 -4 -10 -5 0 -13 5 -16 10 -3 6 -2 10 4 10 5 0 13 -4 16 -10z m1295 -20 c0 -5 -5 -10 -11 -10 -5 0 -7 5 -4 10 3 6 8 10 11 10 2 0 4 -4 4 -10z m-30 -10 c0 -5 -2 -10 -4 -10 -3 0 -8 5 -11 10 -3 6 -1 10 4 10 6 0 11 -4 11 -10z m-2230 -24 c0 -3 -4 -8 -10 -11 -5 -3 -10 -1 -10 4 0 6 5 11 10 11 6 0 10 -2 10 -4z m45 -26 c-16 -16 -30 -28 -33 -26 -6 6 40 56 52 56 5 0 -3 -13 -19 -30z m-2931 12 c3 -5 8 -29 12 -53 l7 -44 -33 33 c-56 55 -60 48 -60 -101 0 -104 3 -137 16 -155 l15 -22 -77 0 c-74 0 -76 1 -61 18 14 15 17 42 17 155 0 90 -4 137 -11 137 -21 0 -49 -21 -64 -48 -15 -26 -15 -26 -9 23 4 28 8 53 11 58 6 10 231 9 237 -1z m968 2 c45 -6 46 -7 52 -52 6 -44 -2 -72 -12 -43 -9 27 -55 61 -81 61 -56 0 -91 -54 -91 -140 1 -50 34 -118 64 -130 47 -17 56 -5 56 76 0 45 -4 74 -11 74 -5 0 -7 5 -4 10 3 6 35 10 71 10 l64 0 0 30 c0 77 51 116 142 106 33 -3 64 -8 69 -12 5 -3 9 -26 9 -52 -1 -46 -1 -46 -15 -22 -26 49 -86 64 -109 28 -16 -26 2 -47 58 -69 74 -28 96 -53 96 -109 0 -56 -25 -94 -73 -109 -21 -6 -99 -8 -222 -3 -208 8 -222 12 -262 77 l-18 30 -3 -32 c-2 -18 2 -41 8 -53 10 -19 8 -20 -30 -20 -38 0 -52 12 -30 25 18 11 1 46 -74 150 l-71 99 -3 -117 c-1 -69 2 -125 8 -137 10 -19 8 -20 -32 -20 -33 0 -39 3 -30 12 17 17 17 299 0 316 -9 9 6 12 69 12 73 0 82 -2 80 -18 -1 -21 40 -92 54 -92 12 0 12 77 -1 85 -22 14 -8 25 30 25 37 0 40 -2 30 -19 -5 -11 -10 -30 -10 -43 0 -21 2 -21 27 11 43 55 93 69 195 55z m-822 -14 c0 -5 -4 -10 -10 -10 -5 0 -10 -16 -10 -35 0 -35 0 -35 46 -35 45 0 46 1 42 28 -3 15 -9 35 -13 45 -6 15 -1 17 51 17 l59 0 -3 -156 c-2 -110 0 -159 9 -170 10 -12 1 -14 -60 -14 l-72 0 15 22 c11 16 16 46 16 104 0 90 -6 98 -60 87 l-30 -5 0 -92 c0 -58 4 -96 12 -104 9 -9 -3 -12 -55 -12 -64 0 -67 1 -57 19 13 25 13 288 0 296 -25 16 -5 25 55 25 37 0 65 -4 65 -10z m312 -146 c-2 -110 0 -159 9 -170 10 -12 2 -14 -54 -14 l-66 0 10 29 c12 33 8 267 -5 294 -7 15 -2 17 50 17 l59 0 -3 -156z m3438 132 c0 -8 -4 -17 -9 -21 -6 -3 -9 4 -8 15 1 23 17 28 17 6z m1320 10 c0 -11 -19 -15 -25 -6 -3 5 1 10 9 10 9 0 16 -2 16 -4z m1211 -38 l-22 -8 20 -22 c19 -19 27 -38 18 -38 -2 0 -17 7 -34 15 -24 12 -29 20 -26 40 5 24 26 35 52 26 10 -3 8 -7 -8 -13z m-1446 -8 c8 -13 -5 -13 -25 0 -13 8 -13 10 2 10 9 0 20 -4 23 -10z m-1155 -80 c11 0 60 -88 60 -109 0 -17 -3 -13 -44 60 -10 19 -27 42 -37 52 -16 15 -17 21 -7 40 13 21 13 21 16 -10 2 -18 7 -33 12 -33z m2690 12 c15 -54 13 -55 -25 -25 -39 31 -45 48 -14 38 18 -6 19 -5 10 14 -10 17 -9 20 4 15 8 -3 19 -22 25 -42z m-2740 13 c0 -2 -7 -2 -16 2 -9 3 -20 0 -25 -8 -7 -12 -9 -11 -9 2 0 23 10 30 31 18 11 -5 19 -12 19 -14z m1844 -277 c-7 -122 -2 -113 -63 -109 -37 2 -56 -1 -62 -10 -7 -11 -9 -11 -9 1 0 21 -70 15 -87 -8 -7 -9 -13 -11 -13 -5 0 6 -3 18 -6 27 -4 11 -1 16 10 16 9 0 16 7 16 15 0 9 -6 12 -15 9 -10 -4 -20 6 -31 29 -26 54 -17 64 68 66 124 4 178 8 185 15 10 10 11 8 7 -46z m246 36 c24 -5 24 -6 6 -19 -10 -8 -15 -18 -12 -24 4 -6 -4 -13 -18 -17 -15 -3 -26 -14 -28 -27 -3 -21 -3 -21 -19 3 -9 14 -19 42 -23 62 l-7 37 38 -5 c21 -3 49 -8 63 -10z m-1666 -20 c8 -3 12 -12 9 -20 -3 -8 0 -14 6 -14 6 0 11 -8 11 -17 0 -28 16 -47 31 -37 19 12 190 7 203 -6 7 -7 1 -10 -19 -10 l-30 -1 33 -29 c19 -18 26 -30 18 -30 -8 0 -20 -8 -25 -17 -9 -16 -10 -16 -11 -2 0 20 -93 79 -123 79 -38 0 -63 -11 -76 -32 -11 -18 -11 -20 1 -15 8 3 21 1 28 -3 10 -6 7 -10 -13 -15 -58 -15 -14 -33 87 -37 l51 -1 -60 -6 c-105 -10 -174 17 -148 58 13 20 0 41 -24 41 -7 0 -13 5 -13 10 0 6 4 10 9 10 5 0 7 9 4 20 -6 22 14 80 27 80 5 0 15 -3 24 -6z m1906 -6 c0 -5 -4 -8 -10 -8 -6 0 -7 -19 -4 -45 5 -46 -4 -57 -26 -29 -10 11 -23 14 -50 9 -40 -7 -88 7 -96 29 -3 8 3 23 12 35 16 18 28 20 96 18 43 -1 78 -5 78 -9z m-1240 -39 c0 -11 -4 -17 -10 -14 -5 3 -10 1 -10 -4 0 -6 7 -11 15 -11 8 0 15 -5 15 -11 0 -6 -6 -8 -12 -5 -7 3 -21 9 -30 12 -21 7 -23 25 -6 42 19 19 38 14 38 -9z m995 -19 c-3 -5 -12 -7 -20 -3 -21 7 -19 13 6 13 11 0 18 -4 14 -10z m-1055 -20 c0 -5 -5 -10 -11 -10 -5 0 -7 5 -4 10 3 6 8 10 11 10 2 0 4 -4 4 -10z m-1715 -10 c3 -5 -1 -10 -10 -10 -9 0 -13 5 -10 10 3 6 8 10 10 10 2 0 7 -4 10 -10z m416 -1 c20 -10 20 -11 3 -30 -23 -26 -53 -24 -63 4 -7 18 -4 23 13 29 11 3 22 6 24 7 2 1 12 -4 23 -10z m1063 -20 c-22 -24 -34 -24 -34 0 0 21 17 31 38 23 10 -3 9 -9 -4 -23z m-1154 0 c0 -5 -4 -9 -10 -9 -5 0 -10 7 -10 16 0 8 5 12 10 9 6 -3 10 -10 10 -16z m645 1 c3 -5 1 -10 -4 -10 -6 0 -11 5 -11 10 0 6 2 10 4 10 3 0 8 -4 11 -10z m799 -15 c3 -10 -1 -15 -12 -15 -10 0 -13 -3 -7 -8 6 -4 10 -16 10 -27 0 -18 -7 -20 -65 -21 -59 0 -100 11 -100 27 0 3 16 14 35 25 27 14 37 16 47 6 7 -7 16 -12 22 -12 5 0 6 3 3 7 -11 11 14 33 38 33 13 0 25 -7 29 -15z m-934 -35 l32 -40 -25 0 c-18 0 -27 7 -31 24 -3 13 -9 31 -12 40 -10 27 3 18 36 -24z m-4520 -26 c0 -8 -4 -12 -10 -9 -5 3 -10 10 -10 16 0 5 5 9 10 9 6 0 10 -7 10 -16z m72 -30 c-6 -35 -12 -29 -12 14 0 23 3 32 9 24 4 -7 6 -24 3 -38z m713 5 c0 -16 -3 -29 -7 -29 -5 0 -8 17 -8 37 0 20 3 33 8 29 4 -4 7 -21 7 -37z m528 0 c-8 -29 -13 -23 -13 14 0 22 3 28 9 18 5 -7 6 -22 4 -32z m3430 35 c11 -11 -3 -24 -18 -18 -8 4 -12 10 -9 15 6 11 18 12 27 3z m1395 -21 c2 -7 -8 -17 -22 -23 -21 -8 -30 -6 -46 10 -11 11 -20 23 -20 26 0 11 84 -1 88 -13z m508 7 c33 0 31 -16 -3 -23 -34 -6 -53 1 -53 20 0 10 6 13 16 9 9 -3 27 -6 40 -6z m-6434 -25 c-2 -14 -6 -25 -8 -25 -2 0 -4 11 -4 25 0 14 4 25 9 25 4 0 6 -11 3 -25z m138 -6 c0 -28 -15 -23 -16 6 -1 14 2 22 7 19 5 -3 9 -14 9 -25z m187 -6 c-3 -10 -5 -4 -5 12 0 17 2 24 5 18 2 -7 2 -21 0 -30z m40 0 c-3 -10 -5 -4 -5 12 0 17 2 24 5 18 2 -7 2 -21 0 -30z m143 2 c0 -19 -2 -35 -4 -35 -2 0 -6 16 -8 35 -2 19 0 35 4 35 4 0 8 -16 8 -35z m177 -2 c-3 -10 -5 -4 -5 12 0 17 2 24 5 18 2 -7 2 -21 0 -30z m223 12 c0 -14 -4 -25 -8 -25 -4 0 -9 11 -10 25 -1 14 3 25 8 25 6 0 10 -11 10 -25z m40 21 c0 -3 -4 -8 -10 -11 -5 -3 -10 -1 -10 4 0 6 5 11 10 11 6 0 10 -2 10 -4z m28 -32 c-3 -14 -5 -12 -10 9 -3 19 -2 25 4 19 6 -6 8 -18 6 -28z m29 -1 c-3 -10 -5 -4 -5 12 0 17 2 24 5 18 2 -7 2 -21 0 -30z m160 0 c-3 -10 -5 -4 -5 12 0 17 2 24 5 18 2 -7 2 -21 0 -30z m220 0 c-3 -10 -5 -4 -5 12 0 17 2 24 5 18 2 -7 2 -21 0 -30z m73 27 c0 -5 -4 -10 -10 -10 -5 0 -10 5 -10 10 0 6 5 10 10 10 6 0 10 -4 10 -10z m57 -27 c-3 -10 -5 -4 -5 12 0 17 2 24 5 18 2 -7 2 -21 0 -30z m43 17 c0 -11 -2 -20 -4 -20 -2 0 -6 9 -9 20 -3 11 -1 20 4 20 5 0 9 -9 9 -20z m30 0 c0 -11 -2 -20 -4 -20 -2 0 -6 9 -9 20 -3 11 -1 20 4 20 5 0 9 -9 9 -20z m70 -5 c0 -14 -4 -25 -9 -25 -6 0 -8 36 -2 48 5 10 11 -2 11 -23z m200 5 c0 -11 -2 -20 -4 -20 -2 0 -6 9 -9 20 -3 11 -1 20 4 20 5 0 9 -9 9 -20z m39 3 c1 9 4 17 7 17 4 0 13 -8 20 -17 13 -17 13 -17 14 1 0 11 3 17 6 13 3 -3 3 -15 -1 -27 -6 -17 -9 -19 -22 -9 -11 10 -16 10 -22 0 -6 -10 -10 -9 -15 4 -9 25 -6 43 4 20 7 -17 9 -17 9 -2z m84 -3 c-3 -11 -7 -20 -9 -20 -2 0 -4 9 -4 20 0 11 4 20 9 20 5 0 7 -9 4 -20z m101 -13 c4 -19 3 -26 -4 -22 -5 3 -10 18 -10 32 0 32 5 28 14 -10z m36 8 c0 -14 -4 -25 -9 -25 -4 0 -6 11 -3 25 2 14 6 25 8 25 2 0 4 -11 4 -25z m33 5 c-3 -11 -7 -20 -9 -20 -2 0 -4 9 -4 20 0 11 4 20 9 20 5 0 7 -9 4 -20z m40 5 c4 -8 2 -17 -2 -20 -5 -2 -11 4 -14 15 -6 23 8 27 16 5z m29 -10 c-2 -14 -6 -25 -8 -25 -2 0 -4 11 -4 25 0 14 4 25 9 25 4 0 6 -11 3 -25z m71 18 c-7 -2 -13 -12 -13 -20 0 -9 -3 -14 -6 -10 -10 10 4 37 18 36 10 0 10 -2 1 -6z m37 -17 c0 -14 -4 -27 -9 -30 -4 -3 -8 8 -7 24 1 36 16 41 16 6z m44 -8 c6 -4 7 -10 3 -15 -10 -9 -27 16 -26 37 1 13 1 13 6 0 3 -8 11 -18 17 -22z m56 20 c0 -7 -5 -20 -10 -28 -8 -12 -10 -9 -10 13 0 15 5 27 10 27 6 0 10 -6 10 -12z m28 -13 c-3 -3 -9 2 -12 12 -6 14 -5 15 5 6 7 -7 10 -15 7 -18z m34 0 c-2 -14 -6 -25 -8 -25 -2 0 -4 11 -4 25 0 14 4 25 9 25 4 0 6 -11 3 -25z m48 15 c0 -5 -4 -10 -9 -10 -6 0 -13 5 -16 10 -3 6 1 10 9 10 9 0 16 -4 16 -10z m3657 4 c-3 -3 -12 -4 -19 -1 -8 3 -5 6 6 6 11 1 17 -2 13 -5z m-6427 -29 c0 -8 -4 -15 -10 -15 -5 0 -10 7 -10 15 0 8 5 15 10 15 6 0 10 -7 10 -15z m50 0 c0 -8 -4 -15 -10 -15 -5 0 -10 7 -10 15 0 8 5 15 10 15 6 0 10 -7 10 -15z m1004 0 c3 -8 1 -15 -4 -15 -6 0 -10 7 -10 15 0 8 2 15 4 15 2 0 6 -7 10 -15z m-609 -5 c3 -5 2 -10 -4 -10 -5 0 -13 5 -16 10 -3 6 -2 10 4 10 5 0 13 -4 16 -10z m525 0 c0 -5 -4 -10 -10 -10 -5 0 -10 5 -10 10 0 6 5 10 10 10 6 0 10 -4 10 -10z m134 -6 c3 -8 2 -12 -4 -9 -6 3 -10 10 -10 16 0 14 7 11 14 -7z m616 6 c0 -5 -2 -10 -4 -10 -3 0 -8 5 -11 10 -3 6 -1 10 4 10 6 0 11 -4 11 -10z m1062 -12 c-9 -9 -15 -9 -24 1 -11 10 -10 11 5 6 10 -5 17 -2 17 6 0 7 3 9 7 6 4 -4 1 -13 -5 -19z m-1255 -10 c-3 -8 -6 -5 -6 6 -1 11 2 17 5 13 3 -3 4 -12 1 -19z m917 -110 c-1 -13 -3 -30 -4 -38 -1 -10 -4 -9 -9 5 -5 11 -4 28 1 38 12 23 15 22 12 -5z m-1667 -40 c-2 -13 -4 -5 -4 17 -1 22 1 32 4 23 2 -10 2 -28 0 -40z m-472 32 c3 -5 -1 -10 -10 -10 -9 0 -13 5 -10 10 3 6 8 10 10 10 2 0 7 -4 10 -10z m1085 0 c0 -5 -4 -10 -10 -10 -5 0 -10 5 -10 10 0 6 5 10 10 10 6 0 10 -4 10 -10z m655 1 c3 -5 1 -12 -5 -16 -5 -3 -10 1 -10 9 0 18 6 21 15 7z m167 -23 c-5 -21 -6 -21 -12 -2 -8 21 -3 37 10 29 4 -3 6 -15 2 -27z m-2204 -14 c-3 -14 -5 -12 -10 9 -3 19 -2 25 4 19 6 -6 8 -18 6 -28z m131 9 c-2 -24 -2 -25 -6 -5 -2 12 -11 22 -19 22 -8 0 -15 -10 -15 -22 l-2 -23 -4 22 c-2 12 -12 24 -21 26 -9 3 2 5 26 6 40 1 42 0 41 -26z m131 23 c0 -2 -11 -6 -25 -8 -13 -3 -22 -1 -19 3 5 9 44 13 44 5z m93 -3 c-7 -2 -19 -2 -25 0 -7 3 -2 5 12 5 14 0 19 -2 13 -5z m50 -13 c-3 -11 -7 -20 -9 -20 -2 0 -4 9 -4 20 0 11 4 20 9 20 5 0 7 -9 4 -20z m134 -12 c-3 -7 -5 -2 -5 12 0 14 2 19 5 13 2 -7 2 -19 0 -25z m37 24 c-7 -4 -14 -16 -17 -27 -4 -15 -5 -14 -6 8 -1 20 4 27 17 27 11 0 13 -3 6 -8z m163 -17 c1 -16 1 -16 -3 -2 -7 22 -44 23 -44 0 0 -9 -3 -14 -6 -10 -4 3 -4 13 0 22 9 23 50 15 53 -10z m192 3 c-1 -16 -3 -18 -6 -6 -2 9 -14 19 -26 21 -18 4 -17 5 6 6 22 1 27 -3 26 -21z m81 -6 c0 -22 -5 -28 -22 -29 -20 -2 -21 -1 -5 8 23 14 22 39 -3 39 -12 0 -20 -7 -20 -17 0 -9 -3 -14 -6 -10 -13 13 7 37 31 37 21 0 25 -5 25 -28z m80 24 c0 -2 -9 -6 -20 -9 -11 -3 -20 -1 -20 4 0 5 9 9 20 9 11 0 20 -2 20 -4z m69 -13 c0 -11 -3 -13 -6 -5 -7 17 -23 15 -23 -4 0 -8 -4 -13 -10 -9 -15 9 0 35 21 35 12 0 19 -7 18 -17z m54 10 c-13 -2 -23 -12 -23 -20 0 -9 -3 -14 -6 -10 -13 13 6 37 28 36 l23 -2 -22 -4z m67 3 c0 -2 -7 -6 -15 -10 -8 -3 -15 -1 -15 4 0 6 7 10 15 10 8 0 15 -2 15 -4z m57 -16 c3 -10 2 -11 -4 -4 -4 6 -15 14 -23 17 -11 5 -9 6 4 4 11 -1 21 -9 23 -17z m139 2 c1 -7 0 -8 -3 -2 -8 16 -33 12 -27 -5 4 -8 1 -15 -5 -15 -12 0 -15 23 -4 34 11 10 36 3 39 -12z m54 -7 c0 -7 -6 -15 -12 -18 -8 -3 -13 4 -13 18 0 14 5 21 13 18 6 -3 12 -11 12 -18z m62 18 c-27 -5 -26 -39 1 -37 9 1 17 -2 17 -7 0 -5 -9 -9 -19 -9 -11 0 -22 -6 -24 -12 -3 -7 -6 6 -6 30 -1 40 0 42 27 41 24 -2 24 -2 4 -6z m92 -2 c4 -5 -3 -7 -14 -4 -15 4 -20 0 -20 -15 0 -11 5 -23 10 -25 6 -3 5 -4 -2 -3 -7 1 -14 15 -16 29 -3 21 1 27 17 27 11 0 22 -4 25 -9z m40 1 c-7 -4 -14 -16 -17 -27 -4 -15 -5 -14 -6 8 -1 20 4 27 17 27 11 0 13 -3 6 -8z m124 1 c-10 -2 -19 -14 -19 -26 -2 -22 -2 -22 -6 1 -2 12 -11 22 -18 22 -7 0 -16 -10 -18 -22 -4 -20 -4 -19 -6 5 -1 26 1 27 42 26 23 -1 34 -3 25 -6z m81 -10 c0 -11 -3 -13 -6 -5 -2 6 -11 12 -19 12 -20 0 -17 -38 4 -43 16 -4 16 -5 -1 -6 -20 -1 -32 21 -23 44 8 21 46 19 45 -2z m171 13 c0 -2 -9 -6 -20 -9 -11 -3 -20 -1 -20 4 0 5 9 9 20 9 11 0 20 -2 20 -4z m158 -3 c-10 -2 -18 -12 -18 -20 0 -9 -3 -14 -6 -10 -12 11 5 37 23 36 17 -1 17 -2 1 -6z m55 -13 c-3 -11 -7 -20 -9 -20 -2 0 -4 9 -4 20 0 11 4 20 9 20 5 0 7 -9 4 -20z m39 -10 c-2 -16 -6 -30 -8 -30 -2 0 -4 14 -4 30 0 17 4 30 8 30 5 0 7 -13 4 -30z m175 -7 c-3 -10 -5 -4 -5 12 0 17 2 24 5 18 2 -7 2 -21 0 -30z m143 28 c0 -5 -9 -7 -20 -4 -15 4 -20 0 -20 -16 0 -23 25 -29 33 -8 3 6 6 -1 6 -18 0 -16 -3 -25 -7 -19 -4 6 -15 13 -24 17 -11 4 -18 17 -18 32 0 20 5 25 25 25 14 0 25 -4 25 -9z m-2490 -46 c0 -5 -5 -3 -10 5 -5 8 -10 20 -10 25 0 6 5 3 10 -5 5 -8 10 -19 10 -25z m150 25 c0 -5 -4 -10 -10 -10 -5 0 -10 5 -10 10 0 6 5 10 10 10 6 0 10 -4 10 -10z m130 -23 c0 -5 -4 -5 -10 -2 -5 3 -10 14 -10 23 0 15 2 15 10 2 5 -8 10 -19 10 -23z m184 17 c3 -8 2 -12 -4 -9 -6 3 -10 10 -10 16 0 14 7 11 14 -7z m666 6 c0 -5 -4 -10 -10 -10 -5 0 -10 5 -10 10 0 6 5 10 10 10 6 0 10 -4 10 -10z m-1055 -19 c-3 -6 -14 -10 -23 -10 -15 1 -15 2 1 6 9 2 17 9 17 15 0 6 3 9 6 5 3 -3 3 -10 -1 -16z m560 9 c3 -5 1 -10 -4 -10 -6 0 -11 5 -11 10 0 6 2 10 4 10 3 0 8 -4 11 -10z m280 -9 c-3 -6 -14 -10 -23 -10 -15 1 -15 2 1 6 9 2 17 9 17 15 0 6 3 9 6 5 3 -3 3 -10 -1 -16z m1013 7 c-3 -7 -12 -14 -22 -14 -13 -2 -13 -1 -1 3 8 2 13 9 10 14 -4 5 -1 9 5 9 7 0 10 -6 8 -12z m382 5 c0 -5 -5 -15 -10 -23 -8 -12 -10 -11 -10 8 0 12 5 22 10 22 6 0 10 -3 10 -7z m-2133 -19 c-3 -3 -12 -4 -19 -1 -8 3 -5 6 6 6 11 1 17 -2 13 -5z m370 0 c-3 -3 -12 -4 -19 -1 -8 3 -5 6 6 6 11 1 17 -2 13 -5z m490 0 c-3 -3 -12 -4 -19 -1 -8 3 -5 6 6 6 11 1 17 -2 13 -5z m110 0 c-3 -3 -12 -4 -19 -1 -8 3 -5 6 6 6 11 1 17 -2 13 -5z m140 0 c-3 -3 -12 -4 -19 -1 -8 3 -5 6 6 6 11 1 17 -2 13 -5z m800 0 c-3 -3 -12 -4 -19 -1 -8 3 -5 6 6 6 11 1 17 -2 13 -5z m3981 -1 c-10 -2 -28 -2 -40 0 -13 2 -5 4 17 4 22 1 32 -1 23 -4z m-5611 -165 c-2 -13 -4 -3 -4 22 0 25 2 35 4 23 2 -13 2 -33 0 -45z m613 22 c0 -35 -3 -40 -22 -39 -17 1 -19 2 -5 6 9 2 17 13 17 24 0 11 -7 19 -17 20 -17 1 -17 2 0 6 9 2 17 9 17 14 0 5 2 9 5 9 3 0 5 -18 5 -40z m224 -3 c1 -20 -2 -33 -6 -31 -5 3 -8 21 -8 41 0 46 11 37 14 -10z m-1049 23 c3 -5 -1 -10 -10 -10 -9 0 -13 5 -10 10 3 6 8 10 10 10 2 0 7 -4 10 -10z m280 0 c3 -5 -1 -10 -10 -10 -9 0 -13 5 -10 10 3 6 8 10 10 10 2 0 7 -4 10 -10z m1225 0 c0 -5 -4 -10 -10 -10 -5 0 -10 5 -10 10 0 6 5 10 10 10 6 0 10 -4 10 -10z m44 -29 c1 -16 -2 -27 -5 -25 -9 5 -17 52 -11 59 9 9 15 -4 16 -34z m-1987 23 c-3 -3 -12 -4 -19 -1 -8 3 -5 6 6 6 11 1 17 -2 13 -5z m149 -17 c1 -12 1 -13 -3 -2 -7 23 -43 19 -43 -5 0 -14 7 -20 23 -21 20 -1 20 -2 2 -6 -11 -3 -23 -10 -27 -17 -4 -6 -8 8 -8 32 0 41 1 43 27 40 18 -2 28 -9 29 -21z m72 6 c2 -7 -1 -13 -8 -13 -6 0 -8 5 -5 10 3 6 -1 10 -9 10 -19 0 -22 -36 -3 -43 9 -4 9 -6 -1 -6 -16 -1 -26 24 -18 45 7 18 37 15 44 -3z m23 -14 c-9 -22 -10 -22 -10 -3 -1 11 2 24 6 27 12 12 14 0 4 -24z m85 -2 c1 -27 1 -27 -3 -1 -3 20 -9 25 -24 21 -10 -3 -19 -1 -19 5 0 5 10 8 23 6 16 -2 22 -10 23 -31z m61 27 c-3 -3 -12 -4 -19 -1 -8 3 -5 6 6 6 11 1 17 -2 13 -5z m123 -24 c0 -25 -4 -30 -25 -30 -17 0 -25 5 -24 18 0 10 3 12 6 5 9 -23 33 -14 33 12 0 14 2 25 5 25 3 0 5 -13 5 -30z m97 24 c-3 -3 -12 -4 -19 -1 -8 3 -5 6 6 6 11 1 17 -2 13 -5z m178 -24 c0 -20 -5 -25 -25 -27 -22 -1 -22 -1 -2 4 29 6 31 43 2 43 -12 0 -20 -7 -20 -17 0 -9 -3 -14 -6 -10 -14 13 7 38 28 35 17 -2 23 -10 23 -28z m32 -7 c-3 -10 -5 -4 -5 12 0 17 2 24 5 18 2 -7 2 -21 0 -30z m70 31 c-3 -3 -12 -4 -19 -1 -8 3 -5 6 6 6 11 1 17 -2 13 -5z m48 -4 c-18 -8 -18 -9 5 -10 l25 -2 -25 -7 c-30 -9 -34 -7 -27 14 4 8 14 15 24 14 16 0 16 -1 -2 -9z m82 4 c-3 -3 -12 -4 -19 -1 -8 3 -5 6 6 6 11 1 17 -2 13 -5z m90 0 c-3 -3 -12 -4 -19 -1 -8 3 -5 6 6 6 11 1 17 -2 13 -5z m77 -3 c4 -5 -3 -7 -13 -4 -15 4 -20 -1 -24 -24 -4 -27 -4 -27 -6 5 -1 26 3 32 18 32 11 0 22 -4 25 -9z m163 3 c-3 -3 -12 -4 -19 -1 -8 3 -5 6 6 6 11 1 17 -2 13 -5z m84 -1 c-11 -5 -11 -7 0 -14 11 -7 10 -9 -3 -9 -10 0 -18 7 -18 15 0 8 8 15 18 14 12 0 13 -2 3 -6z m86 -40 c-3 -10 -5 -2 -5 17 0 19 2 27 5 18 2 -10 2 -26 0 -35z m70 41 c-3 -3 -12 -4 -19 -1 -8 3 -5 6 6 6 11 1 17 -2 13 -5z m79 -27 c1 -27 1 -27 -3 -1 -3 20 -9 25 -24 21 -10 -3 -19 -1 -19 5 0 5 10 8 23 6 16 -2 22 -10 23 -31z m57 26 c-15 -3 -23 -12 -23 -24 0 -22 20 -25 39 -6 10 10 11 9 6 -5 -9 -22 -43 -24 -51 -3 -10 24 4 45 28 44 l23 -2 -22 -4z m87 -8 c0 -8 -5 -15 -11 -15 -5 0 -7 5 -4 10 3 6 0 10 -7 10 -20 0 -20 -38 0 -43 15 -4 15 -5 -1 -6 -20 -1 -32 21 -23 44 3 8 15 15 26 15 11 0 20 -7 20 -15z m87 -32 c-3 -10 -5 -2 -5 17 0 19 2 27 5 18 2 -10 2 -26 0 -35z m180 41 c-3 -3 -12 -4 -19 -1 -8 3 -5 6 6 6 11 1 17 -2 13 -5z m103 -3 c0 -5 -9 -7 -20 -4 -14 4 -20 0 -20 -13 0 -9 -3 -15 -6 -11 -4 3 -4 13 -1 22 7 16 47 21 47 6z m37 -38 c-3 -10 -5 -2 -5 17 0 19 2 27 5 18 2 -10 2 -26 0 -35z m30 25 c-3 -8 -6 -5 -6 6 -1 11 2 17 5 13 3 -3 4 -12 1 -19z m-167 -3 c0 -1 -11 -5 -25 -7 -16 -3 -25 -1 -25 7 0 8 9 10 25 7 14 -2 25 -6 25 -7z m-2083 -1 c-3 -3 -12 -4 -19 -1 -8 3 -5 6 6 6 11 1 17 -2 13 -5z m367 -9 c-4 -8 -1 -15 5 -15 6 0 11 7 11 15 0 8 5 15 10 15 12 0 12 -3 4 -24 -7 -19 -44 -21 -44 -3 0 12 9 27 16 27 2 0 1 -7 -2 -15z m246 -5 c0 -13 -6 -20 -17 -19 -11 0 -13 3 -5 6 6 2 12 11 12 19 0 8 2 14 5 14 3 0 5 -9 5 -20z m410 0 c0 -12 -7 -20 -17 -20 -15 0 -16 2 -3 10 13 9 13 11 0 20 -13 8 -12 10 3 10 10 0 17 -8 17 -20z m98 3 c-2 -10 -12 -18 -23 -19 -15 -1 -16 0 -2 3 9 3 17 8 17 13 0 5 -8 11 -17 13 -13 3 -12 5 5 6 17 1 23 -4 20 -16z m482 7 c0 -5 -4 -10 -10 -10 -5 0 -10 5 -10 10 0 6 5 10 10 10 6 0 10 -4 10 -10z m580 -25 c0 -17 -5 -25 -17 -25 -15 0 -16 2 -3 10 13 8 12 10 -5 11 -17 1 -17 2 -2 6 9 2 17 9 17 14 0 5 2 9 5 9 3 0 5 -11 5 -25z m-2110 3 c0 -4 -9 -8 -20 -8 -11 0 -20 4 -20 8 0 4 9 8 20 8 11 0 20 -4 20 -8z m1511 -6 c-7 -2 -18 1 -23 6 -8 8 -4 9 13 5 13 -4 18 -8 10 -11z m-1584 2 c-3 -3 -12 -4 -19 -1 -8 3 -5 6 6 6 11 1 17 -2 13 -5z m890 0 c-3 -3 -12 -4 -19 -1 -8 3 -5 6 6 6 11 1 17 -2 13 -5z m66 -1 c-7 -2 -19 -2 -25 0 -7 3 -2 5 12 5 14 0 19 -2 13 -5z m394 1 c-3 -3 -12 -4 -19 -1 -8 3 -5 6 6 6 11 1 17 -2 13 -5z m90 0 c-3 -3 -12 -4 -19 -1 -8 3 -5 6 6 6 11 1 17 -2 13 -5z m640 0 c-3 -3 -12 -4 -19 -1 -8 3 -5 6 6 6 11 1 17 -2 13 -5z m-350 -20 c-3 -3 -12 -4 -19 -1 -8 3 -5 6 6 6 11 1 17 -2 13 -5z m-1022 -319 l0 -130 -369 -3 c-289 -2 -371 1 -378 10 -9 15 -11 219 -2 242 6 15 45 16 378 14 l371 -3 0 -130z m335 39 c0 -20 5 -24 31 -24 38 0 35 -24 -4 -28 -21 -3 -27 -9 -27 -28 0 -13 -4 -24 -10 -24 -5 0 -10 11 -10 24 0 19 -6 25 -27 28 -39 4 -42 28 -4 28 28 0 31 3 31 31 0 17 4 28 10 24 6 -3 10 -17 10 -31z m437 -8 c-7 -17 57 -13 78 4 18 15 17 16 20 -38 2 -29 0 -42 -8 -39 -7 2 -13 13 -15 25 -4 29 -19 28 -18 0 1 -21 -3 -22 -74 -23 l-75 0 -3 44 c-2 32 0 42 10 39 7 -3 14 -19 16 -36 2 -23 8 -32 22 -32 14 0 20 10 25 40 4 22 11 37 17 34 5 -3 7 -12 5 -18z m-257 -3 c10 -17 10 -17 20 0 20 32 40 20 40 -22 0 -44 -18 -65 -27 -31 -4 15 -8 18 -14 9 -6 -10 -11 -10 -23 0 -14 12 -16 10 -16 -8 0 -12 -4 -19 -10 -16 -5 3 -10 24 -10 46 0 42 20 54 40 22z m105 -13 c15 24 23 -3 11 -37 -13 -37 -36 -57 -36 -30 0 8 -3 30 -7 48 -6 30 -5 33 9 21 11 -9 18 -10 23 -2z m2375 -640 c0 -5 -5 -10 -11 -10 -5 0 -7 5 -4 10 3 6 8 10 11 10 2 0 4 -4 4 -10z m-3802 -227 c2 -16 -4 -26 -22 -35 -14 -6 -26 -15 -26 -20 0 -4 -4 -8 -10 -8 -5 0 -10 21 -10 46 0 45 0 45 33 42 24 -2 33 -8 35 -25z m282 -24 c0 -31 -4 -48 -10 -44 -5 3 -10 26 -10 51 0 24 5 44 10 44 6 0 10 -23 10 -51z m408 26 c21 -26 32 -24 32 7 0 10 5 18 10 18 13 0 13 -87 0 -95 -5 -3 -17 6 -26 20 -20 30 -34 32 -34 5 0 -11 -4 -20 -10 -20 -5 0 -10 20 -10 45 0 51 10 56 38 20z m175 -32 c1 -21 -3 -37 -8 -36 -12 3 -25 61 -18 80 10 24 26 -3 26 -44z m51 35 c-1 -13 -3 -33 -3 -45 -1 -13 -5 -23 -10 -23 -10 0 -18 46 -13 73 5 25 29 21 26 -5z m36 -23 c0 -25 -4 -45 -10 -45 -5 0 -10 20 -10 45 0 25 5 45 10 45 6 0 10 -20 10 -45z m40 41 c0 -3 -4 -8 -10 -11 -5 -3 -10 -1 -10 4 0 6 5 11 10 11 6 0 10 -2 10 -4z m-912 -58 c2 -19 -2 -28 -18 -33 -24 -8 -50 10 -50 35 0 24 10 31 40 28 19 -2 26 -10 28 -30z m87 3 c0 -17 -10 -30 -32 -42 l-33 -19 0 46 c0 45 0 45 33 42 26 -2 32 -7 32 -27z m35 3 c0 -32 22 -27 31 7 6 21 7 19 8 -11 1 -30 -3 -36 -21 -37 -12 -1 -26 3 -30 10 -11 17 -10 57 2 57 6 0 10 -12 10 -26z m155 -8 c0 -30 -26 -44 -53 -27 -19 11 -3 41 22 42 19 1 19 2 -4 9 -24 9 -24 9 5 7 26 -2 30 -6 30 -31z m47 22 c-7 -7 -12 -20 -12 -30 0 -10 -4 -18 -10 -18 -5 0 -10 14 -10 30 0 24 4 30 22 30 17 0 19 -3 10 -12z m116 -17 c6 -39 -39 -56 -58 -22 -15 30 -2 53 29 49 19 -2 27 -10 29 -27z m82 -7 c0 -21 -4 -33 -10 -29 -5 3 -10 17 -10 31 0 13 -4 24 -10 24 -5 0 -10 -11 -10 -25 0 -14 -4 -25 -10 -25 -5 0 -10 14 -10 30 0 27 3 30 30 30 28 0 30 -3 30 -36z m218 18 c2 -6 -7 -16 -20 -21 l-23 -10 25 -1 25 -1 -22 -11 c-17 -8 -26 -8 -38 2 -16 13 -20 42 -8 54 11 11 56 2 61 -12z m172 -11 c0 -17 -4 -33 -10 -36 -6 -4 -10 8 -10 29 0 20 5 36 10 36 6 0 10 -13 10 -29z m67 -3 c0 -18 -5 -27 -12 -24 -7 2 -17 0 -23 -6 -7 -7 -10 1 -9 25 1 28 5 35 22 35 17 0 22 -7 22 -30z m1084 -220 c-9 -20 -10 -18 -10 17 0 31 2 36 9 23 6 -10 7 -25 1 -40z m3497 -12 c51 -26 65 -51 60 -104 -3 -28 -14 -63 -27 -80 -41 -58 -131 -66 -191 -16 -26 22 -30 32 -30 72 1 26 7 61 14 77 l13 30 8 -37 c7 -37 25 -53 25 -23 0 8 5 15 10 15 6 0 13 -7 16 -15 4 -8 12 -15 20 -15 16 0 29 43 20 65 -8 21 3 45 21 45 8 0 26 -6 41 -14z m950 -51 c4 -48 20 -70 28 -38 l6 21 21 -21 21 -21 6 24 c7 29 30 29 71 -1 15 -10 31 -19 37 -19 5 0 15 -7 22 -15 10 -12 10 -15 -3 -15 -22 0 -77 -49 -89 -79 -5 -14 -10 -54 -10 -89 0 -57 -2 -62 -17 -49 -9 8 -38 22 -66 32 -27 10 -56 23 -62 28 -9 7 -13 49 -13 149 0 139 0 139 23 136 18 -2 23 -10 25 -43z m188 15 c8 0 14 -8 14 -17 0 -13 -3 -14 -12 -5 -7 7 -20 12 -30 12 -10 0 -18 5 -18 11 0 6 7 8 16 5 9 -3 22 -6 30 -6z m-695 -54 c-9 -11 -9 -16 1 -22 12 -8 17 -10 37 -13 12 -1 21 -41 10 -41 -6 0 -21 11 -35 25 -14 14 -34 25 -44 25 -19 0 -19 1 -3 20 10 11 24 20 31 20 11 0 12 -3 3 -14z m-1936 -46 c3 -5 1 -10 -4 -10 -6 0 -11 5 -11 10 0 6 2 10 4 10 3 0 8 -4 11 -10z m2794 -40 c23 -22 40 -40 37 -40 -4 0 -29 18 -57 40 -28 22 -45 40 -37 40 8 0 33 -18 57 -40z m-899 14 c11 -13 10 -16 -8 -21 -12 -3 -22 -12 -22 -21 0 -13 3 -12 20 3 11 10 26 15 36 11 15 -6 15 -9 -5 -30 -13 -14 -19 -29 -15 -40 6 -16 -11 -46 -26 -46 -4 0 -12 11 -18 25 -7 15 -8 25 -2 25 5 0 3 18 -6 40 -13 32 -14 43 -4 55 16 19 34 19 50 -1z m-1890 -8 c0 -3 -4 -8 -10 -11 -5 -3 -10 -1 -10 4 0 6 5 11 10 11 6 0 10 -2 10 -4z m2038 -171 c-2 -2 -27 -7 -56 -11 -58 -7 -69 5 -28 31 17 12 22 22 18 37 -4 18 2 14 32 -16 21 -20 36 -39 34 -41z m-198 41 c0 -3 -4 -8 -10 -11 -5 -3 -10 -1 -10 4 0 6 5 11 10 11 6 0 10 -2 10 -4z m1020 -36 c0 -5 -2 -10 -4 -10 -3 0 -8 5 -11 10 -3 6 -1 10 4 10 6 0 11 -4 11 -10z m-401 -26 c17 -8 29 -19 26 -24 -6 -10 -78 15 -83 29 -5 16 20 14 57 -5z m-664 -37 c-7 -27 -35 -46 -35 -24 0 15 30 60 37 54 2 -3 1 -16 -2 -30z m1065 17 c0 -8 -4 -12 -10 -9 -5 3 -10 10 -10 16 0 5 5 9 10 9 6 0 10 -7 10 -16z"/>
<path d="M700 3564 c0 -17 22 -14 28 4 2 7 -3 12 -12 12 -9 0 -16 -7 -16 -16z"/>
<path d="M917 3323 c-4 -3 -7 -30 -7 -60 l0 -54 29 15 c43 22 54 62 25 90 -16 17 -36 21 -47 9z"/>
<path d="M1194 3233 c-12 -55 -11 -56 19 -64 31 -8 34 1 15 62 -14 49 -24 49 -34 2z"/>
<path d="M2403 3323 c-16 -6 -18 -113 -3 -113 20 0 60 49 60 74 0 21 -26 49 -42 45 -2 0 -9 -3 -15 -6z"/>
<path d="M1957 2769 c-14 -8 -17 -25 -17 -84 0 -86 17 -112 22 -33 l3 53 22 -38 c26 -44 65 -62 108 -50 25 7 30 14 30 38 0 27 -7 33 -64 61 -35 17 -69 38 -75 46 -9 12 -17 13 -29 7z"/>
<path d="M5070 2472 c0 -4 9 -8 20 -9 11 -1 20 2 20 8 0 5 -9 9 -20 9 -11 0 -20 -4 -20 -8z"/>
<path d="M420 1595 l0 -55 50 25 c28 14 50 27 50 29 0 5 -86 56 -94 56 -3 0 -6 -25 -6 -55z"/>
<path d="M617 1624 c-11 -11 -8 -62 3 -69 6 -3 10 -1 10 5 0 6 12 15 26 20 33 13 29 44 -6 48 -14 2 -29 0 -33 -4z m43 -19 c0 -8 -7 -15 -15 -15 -16 0 -20 12 -8 23 11 12 23 8 23 -8z"/>
<path d="M693 1590 c0 -25 2 -35 4 -22 2 12 2 32 0 45 -2 12 -4 2 -4 -23z"/>
<path d="M744 1601 c14 -5 16 -10 8 -15 -7 -4 -12 -4 -12 1 0 4 -4 1 -9 -7 -12 -18 -5 -30 19 -30 24 0 33 15 25 40 -4 12 -15 20 -28 19 -21 0 -21 -1 -3 -8z"/>
<path d="M790 1604 c0 -7 6 -26 14 -44 l13 -32 12 32 c15 44 14 58 -3 35 -13 -18 -13 -18 -24 1 -6 10 -12 14 -12 8z"/>
<path d="M130 734 c0 -9 5 -14 12 -12 18 6 21 28 4 28 -9 0 -16 -7 -16 -16z"/>
<path d="M215 720 c-7 -12 2 -30 16 -30 5 0 9 9 9 20 0 21 -15 27 -25 10z"/>
<path d="M300 711 c0 -12 6 -21 16 -21 9 0 14 7 12 17 -5 25 -28 28 -28 4z"/>
<path d="M657 723 c-13 -12 -7 -33 8 -33 8 0 15 9 15 20 0 20 -11 26 -23 13z"/>
<path d="M5780 341 c0 -13 38 -33 53 -28 7 2 -3 11 -20 21 -18 9 -33 12 -33 7z"/>
<path d="M6820 265 c0 -8 5 -15 10 -15 6 0 10 7 10 15 0 8 -4 15 -10 15 -5 0 -10 -7 -10 -15z"/>
<path d="M7507 4283 c-11 -10 -8 -61 3 -68 6 -4 10 10 10 34 0 42 -2 46 -13 34z"/>
<path d="M4565 518 c-2 -7 -6 -41 -8 -76 -4 -50 -2 -65 10 -69 8 -3 19 -1 25 5 9 9 15 8 25 0 24 -20 34 6 31 77 -2 44 -8 70 -15 73 -8 2 -13 -7 -13 -25 l-1 -28 -15 28 c-16 29 -32 35 -39 15z"/>
<path d="M1252 453 c3 -66 17 -88 28 -42 5 21 6 21 17 -5 21 -45 33 -30 33 44 0 72 -9 87 -28 48 l-11 -23 0 23 c-1 15 -7 22 -21 22 -19 0 -21 -5 -18 -67z"/>
<path d="M3460 450 c0 -66 12 -92 26 -55 8 20 24 19 24 -1 0 -9 6 -14 13 -12 7 3 13 29 15 71 2 55 0 67 -13 67 -8 0 -15 -8 -15 -17 -1 -17 -1 -17 -11 0 -5 9 -17 17 -24 17 -12 0 -15 -16 -15 -70z"/>
<path d="M4356 481 c-4 -7 -5 -15 -2 -18 9 -9 19 4 14 18 -4 11 -6 11 -12 0z"/>
<path d="M4325 470 c-3 -5 -1 -10 4 -10 6 0 11 5 11 10 0 6 -2 10 -4 10 -3 0 -8 -4 -11 -10z"/>
<path d="M493 403 c-13 -14 -23 -30 -23 -35 0 -13 38 -9 70 7 l28 15 18 -46 c15 -41 19 -44 30 -29 9 13 10 24 1 48 -23 67 -84 86 -124 40z"/>
<path d="M1558 393 c6 -2 18 -2 25 0 6 3 1 5 -13 5 -14 0 -19 -2 -12 -5z"/>
<path d="M1880 396 c0 -2 7 -7 16 -10 8 -3 12 -2 9 4 -6 10 -25 14 -25 6z"/>
<path d="M1760 343 c-3 -29 -1 -48 3 -44 5 5 7 28 5 52 l-3 44 -5 -52z"/>
<path d="M1853 340 c0 -30 2 -43 4 -27 2 15 2 39 0 55 -2 15 -4 2 -4 -28z"/>
<path d="M3029 378 c-1 -7 -2 -19 -3 -25 -1 -13 -71 -53 -93 -53 -7 0 -13 5 -13 10 0 6 5 10 10 10 21 0 9 30 -12 31 -90 6 -128 2 -168 -14 -52 -21 -79 -50 -119 -127 -26 -49 -71 -178 -71 -201 0 -5 29 -9 64 -9 l64 0 6 34 c12 62 69 83 201 75 51 -3 78 8 90 37 l12 29 13 -41 c8 -27 21 -46 36 -53 37 -16 31 -39 -8 -33 -31 5 -31 4 -15 -13 10 -9 24 -14 32 -11 9 3 15 0 15 -9 0 -8 9 -15 20 -15 23 0 23 -8 9 122 -6 57 -17 110 -24 118 -7 8 -16 45 -20 83 -3 37 -11 67 -16 67 -5 0 -10 -6 -10 -12z m-134 -238 c3 -5 -1 -10 -9 -10 -9 0 -16 5 -16 10 0 6 4 10 9 10 6 0 13 -4 16 -10z"/>
<path d="M1516 365 c-3 -9 -6 -22 -5 -28 0 -7 5 -1 10 12 5 13 8 26 5 28 -2 2 -6 -3 -10 -12z"/>
<path d="M3768 352 c-32 -31 -35 -42 -13 -42 16 0 16 -26 0 -63 -5 -12 -2 -22 11 -31 15 -12 17 -18 7 -37 -6 -13 -14 -41 -18 -62 -3 -21 -9 -45 -12 -53 -4 -10 3 -14 22 -14 34 0 31 -31 -5 -41 -16 -5 -1 -7 44 -8 l68 -1 -26 34 c-34 45 -33 50 6 26 17 -10 36 -16 41 -13 5 3 13 -1 18 -8 7 -11 9 -10 9 4 0 9 -6 17 -13 17 -23 0 -67 54 -61 75 3 12 -3 30 -14 43 -15 18 -18 32 -14 70 2 26 8 53 11 60 4 7 5 26 3 43 -5 37 -28 37 -64 1z"/>
<path d="M1886 347 c-17 -13 -17 -14 0 -28 12 -9 15 -10 10 -1 -4 7 -2 19 4 27 15 18 9 19 -14 2z"/>
<path d="M3890 330 c-13 -9 -13 -10 0 -11 8 -1 22 -3 30 -4 8 -1 20 -3 27 -4 16 -2 39 -52 35 -77 -2 -17 -8 -21 -25 -17 -22 5 -22 4 2 -15 18 -14 22 -24 16 -42 -7 -22 -6 -22 39 -16 35 6 46 4 46 -6 0 -10 2 -10 9 0 6 10 10 6 15 -15 7 -27 8 -27 22 -9 16 23 19 82 4 91 -6 4 -18 1 -26 -6 -11 -9 -18 -9 -26 -1 -8 8 -4 14 15 23 22 10 25 15 14 27 -17 21 -73 43 -90 36 -9 -3 -16 3 -20 15 -3 12 -12 21 -21 21 -9 0 -16 5 -16 10 0 13 -30 13 -50 0z"/>
<path d="M4355 320 c3 -5 11 -10 16 -10 6 0 7 5 4 10 -3 6 -11 10 -16 10 -6 0 -7 -4 -4 -10z"/>
<path d="M4554 316 c-3 -8 -4 -25 -2 -38 2 -18 9 -23 33 -23 28 0 30 3 30 35 0 31 -3 35 -28 38 -17 2 -29 -2 -33 -12z"/>
<path d="M4653 295 c-19 -39 -11 -55 16 -38 14 9 21 9 30 0 13 -13 15 3 5 40 -10 37 -33 36 -51 -2z"/>
<path d="M4809 319 c-11 -7 -12 -12 -2 -28 10 -15 10 -21 0 -24 -8 -3 -5 -7 6 -12 27 -11 45 10 30 35 -9 14 -9 20 -1 22 8 3 6 7 -3 10 -9 3 -22 2 -30 -3z"/>
<path d="M4742 288 c2 -18 8 -33 13 -33 6 0 11 15 13 33 3 24 -1 32 -13 32 -12 0 -16 -8 -13 -32z"/>
<path d="M4880 291 c0 -17 5 -33 10 -36 6 -4 10 8 10 29 0 20 -4 36 -10 36 -5 0 -10 -13 -10 -29z"/>
<path d="M4940 283 c1 -34 2 -36 14 -20 12 15 15 15 26 2 7 -8 15 -13 19 -11 11 7 12 66 1 66 -5 0 -10 -8 -10 -17 -1 -17 -1 -17 -14 0 -22 28 -36 20 -36 -20z"/>
<path d="M5047 313 c-25 -24 14 -70 48 -57 19 8 16 35 -4 42 -10 3 -12 0 -8 -12 5 -11 3 -16 -5 -14 -22 8 -20 28 4 37 l23 10 -26 0 c-14 1 -29 -2 -32 -6z"/>
<path d="M5190 291 c0 -36 7 -42 38 -30 34 13 27 53 -10 57 -25 3 -28 0 -28 -27z m40 -1 c0 -11 -4 -20 -10 -20 -5 0 -10 9 -10 20 0 11 5 20 10 20 6 0 10 -9 10 -20z"/>
<path d="M5285 290 c0 -17 5 -30 13 -30 7 0 12 13 12 30 0 17 -5 30 -12 30 -8 0 -13 -13 -13 -30z"/>
<path d="M5347 314 c-25 -25 8 -70 43 -59 32 10 24 59 -10 63 -14 2 -29 0 -33 -4z m46 -18 c7 -16 -1 -26 -20 -26 -7 0 -13 9 -13 20 0 23 25 27 33 6z"/>
<path d="M5451 283 c1 -21 3 -30 6 -20 6 21 12 21 35 0 17 -15 18 -14 17 23 0 30 -2 35 -9 19 -7 -18 -8 -19 -15 -2 -13 32 -35 20 -34 -20z"/>
<path d="M525 300 c-10 -16 15 -41 39 -38 32 5 28 42 -6 46 -14 2 -29 -2 -33 -8z"/>
<path d="M722 290 c-12 -10 -27 -20 -33 -22 -12 -4 -30 -78 -22 -90 10 -17 34 14 27 35 -5 16 2 28 31 53 39 33 37 56 -3 24z"/>
<path d="M467 286 c-19 -15 -14 -41 10 -51 22 -8 35 8 31 36 -4 28 -17 33 -41 15z"/>
<path d="M790 249 c0 -6 9 -13 19 -16 13 -3 20 -16 24 -41 5 -45 0 -62 -20 -62 -8 0 -24 -11 -35 -25 -14 -18 -29 -25 -54 -25 -19 0 -34 5 -34 10 0 6 -5 10 -11 10 -6 0 -9 -13 -7 -29 1 -18 -5 -37 -16 -50 l-19 -21 126 0 c114 0 127 2 127 18 0 14 -2 15 -10 2 -6 -9 -10 -10 -10 -3 0 6 6 18 14 26 9 9 11 19 5 28 -7 11 -9 10 -9 -5 0 -14 -3 -17 -11 -9 -7 7 -7 22 1 51 12 45 5 93 -14 89 -6 -1 -10 4 -8 11 4 22 -18 52 -38 52 -11 0 -20 -5 -20 -11z"/>
<path d="M2456 242 c-3 -6 -1 -14 5 -17 15 -10 25 3 12 16 -7 7 -13 7 -17 1z"/>
<path d="M3840 224 c0 -9 10 -14 30 -14 17 0 30 2 30 4 0 2 -13 9 -30 15 -24 8 -30 7 -30 -5z"/>
<path d="M513 223 c-19 -7 -15 -47 7 -76 24 -30 25 -37 5 -37 -8 0 -15 7 -15 15 0 20 -8 19 -74 -10 -44 -19 -56 -30 -56 -47 0 -13 -3 -33 -6 -45 -6 -22 -4 -23 60 -23 64 0 66 1 66 25 0 14 5 25 12 25 6 0 20 7 30 16 16 15 18 15 24 1 3 -8 1 -24 -5 -36 -16 -29 -14 -31 24 -31 29 0 36 4 41 25 3 14 9 23 13 21 3 -2 7 26 9 62 3 57 2 64 -11 54 -8 -7 -20 -25 -27 -41 -10 -26 -14 -27 -35 -17 l-24 11 31 33 c24 24 28 32 15 32 -9 0 -20 -8 -26 -17 -8 -15 -12 -16 -35 -4 -24 13 -24 15 -8 27 9 7 25 14 35 14 25 0 21 17 -5 24 -26 6 -28 6 -45 -1z"/>
<path d="M1348 223 c7 -3 16 -2 19 1 4 3 -2 6 -13 5 -11 0 -14 -3 -6 -6z"/>
<path d="M1953 223 c9 -2 25 -2 35 0 9 3 1 5 -18 5 -19 0 -27 -2 -17 -5z"/>
<path d="M2083 223 c9 -2 25 -2 35 0 9 3 1 5 -18 5 -19 0 -27 -2 -17 -5z"/>
<path d="M722 209 c2 -7 10 -15 17 -17 8 -3 12 1 9 9 -2 7 -10 15 -17 17 -8 3 -12 -1 -9 -9z"/>
<path d="M1472 164 l-2 -61 30 5 c36 5 40 22 6 22 -22 0 -25 5 -29 48 -3 44 -4 43 -5 -14z"/>
<path d="M1640 209 c0 -5 5 -7 10 -4 6 3 10 8 10 11 0 2 -4 4 -10 4 -5 0 -10 -5 -10 -11z"/>
<path d="M1775 210 c3 -5 8 -10 11 -10 2 0 4 5 4 10 0 6 -5 10 -11 10 -5 0 -7 -4 -4 -10z"/>
<path d="M1380 197 c0 -11 -8 -17 -25 -17 -22 0 -25 -4 -24 -32 2 -31 2 -31 6 -5 3 19 10 27 24 27 20 0 37 25 25 37 -3 4 -6 -1 -6 -10z"/>
<path d="M1660 187 c0 -18 -26 -24 -32 -6 -2 5 -11 -6 -19 -25 -9 -20 -13 -36 -8 -36 5 0 11 11 15 23 4 19 11 23 29 19 29 -5 55 -62 29 -62 -16 0 -84 -58 -84 -72 0 -4 7 -8 15 -8 8 0 15 -4 15 -10 0 -6 35 -10 85 -10 81 0 85 1 82 21 -4 22 -43 58 -64 59 -7 0 -15 11 -19 25 -9 37 -44 102 -44 82z"/>
<path d="M5065 180 c-15 -7 -10 -9 23 -9 26 -1 41 3 37 9 -7 12 -32 12 -60 0z"/>
<path d="M1963 173 c9 -2 23 -2 30 0 6 3 -1 5 -18 5 -16 0 -22 -2 -12 -5z"/>
<path d="M5141 153 c4 -38 -25 -90 -61 -108 -33 -17 -70 -20 -70 -5 0 6 -7 10 -16 10 -10 0 -14 6 -10 15 10 27 -23 16 -41 -12 -9 -16 -23 -34 -32 -40 -12 -11 31 -13 222 -13 159 0 237 3 237 10 0 37 -78 124 -137 154 -18 9 -46 16 -63 16 -28 0 -31 -3 -29 -27z m109 -87 c0 -10 -6 -13 -15 -10 -8 4 -15 17 -15 31 0 22 2 23 15 9 8 -8 15 -22 15 -30z m-20 -48 c0 -15 -39 16 -49 39 -6 13 -11 27 -11 31 1 9 60 -60 60 -70z"/>
<path d="M1836 137 c3 -10 9 -15 12 -12 3 3 0 11 -7 18 -10 9 -11 8 -5 -6z"/>
<path d="M3960 97 c0 -8 -7 -17 -15 -21 -11 -4 -14 -13 -9 -33 9 -37 20 -43 80 -43 45 0 52 3 57 22 8 29 -1 37 -17 15 -26 -35 -85 -10 -72 31 4 11 0 24 -9 32 -12 10 -15 10 -15 -3z"/>
<path d="M3217 93 c-4 -3 -7 -26 -7 -50 l0 -43 45 0 c40 0 45 2 45 23 0 16 -3 18 -9 8 -12 -19 -24 4 -16 30 10 29 -36 54 -58 32z"/>
<path d="M2807 84 c-14 -15 -6 -25 17 -22 13 1 31 -3 40 -11 14 -12 16 -11 16 8 0 11 -6 21 -12 21 -7 0 -22 3 -33 6 -11 3 -24 2 -28 -2z"/>
<path d="M3157 48 c8 -59 13 -61 13 -5 0 26 -4 47 -9 47 -5 0 -7 -19 -4 -42z"/>
<path d="M1447 66 c-11 -11 -17 -12 -26 -3 -8 8 -11 2 -11 -26 l0 -37 75 0 c72 0 75 1 81 25 9 37 -3 43 -17 9 l-12 -29 -8 31 c-6 20 -17 34 -31 38 -32 8 -35 8 -51 -8z"/>
<path d="M1260 15 c-11 -13 -3 -15 56 -15 65 0 67 1 51 17 -14 15 -21 16 -37 5 -14 -9 -26 -9 -39 -2 -14 7 -22 6 -31 -5z"/>
<path d="M3895 10 c-3 -5 1 -10 10 -10 9 0 13 5 10 10 -3 6 -8 10 -10 10 -2 0 -7 -4 -10 -10z"/>
</g>
</svg>