<svg xmlns="http://www.w3.org/2000/svg" version="1.0" width="297.000000pt" height="170.000000pt" viewBox="0 0 297.000000 170.000000" preserveAspectRatio="xMidYMid meet">

<g transform="translate(0.000000,170.000000) scale(0.100000,-0.100000)" fill="green" stroke="none">
<path d="M220 1020 l0 -500 1265 0 1265 0 0 500 0 500 -1265 0 -1265 0 0 -500z m2130 346 c145 -62 230 -186 232 -336 1 -142 -53 -250 -159 -318 -97 -63 -89 -62 -935 -62 -529 0 -783 3 -820 11 -126 27 -226 113 -260 223 -33 111 -26 223 21 314 42 83 151 161 251 181 25 5 401 8 835 7 754 -1 792 -2 835 -20z"/>
<path d="M1621 1262 c-81 -41 -117 -134 -109 -282 7 -122 55 -192 148 -216 64 -16 138 0 181 42 33 32 69 100 69 132 0 20 -5 22 -60 22 -55 0 -61 -2 -70 -24 -14 -38 -55 -61 -85 -48 -41 19 -58 65 -53 148 3 60 8 77 27 98 14 14 35 26 47 26 23 0 64 -42 64 -66 0 -10 17 -14 65 -14 l65 0 -7 33 c-13 72 -61 135 -116 156 -43 17 -128 13 -166 -7z"/>
<path d="M2080 1257 c-86 -44 -140 -179 -118 -297 28 -156 142 -238 273 -196 102 32 150 125 143 275 -5 103 -30 157 -96 208 -38 28 -51 33 -100 33 -39 0 -71 -8 -102 -23z m156 -148 c20 -39 18 -146 -4 -189 -14 -29 -23 -36 -53 -38 -31 -3 -40 2 -58 27 -17 23 -21 44 -21 103 0 81 13 117 49 134 31 16 67 0 87 -37z"/>
<path d="M590 1265 c0 0 -1 -110 -1 -245 l-1 -245 61 -3 61 -3 0 246 c0 226 -1 245 -17 246 -13 1 -99 4 -103 4z"/>
<path d="M800 1015 l0 -245 65 0 65 0 0 85 0 85 70 0 70 0 0 55 0 55 -71 0 -70 0 3 53 3 52 88 3 87 3 0 49 0 50 -155 0 -155 0 0 -245z"/>
<path d="M1170 1015 l0 -245 65 0 65 0 0 85 0 84 72 3 73 3 -1 50 -1 50 -74 3 -74 3 3 55 4 56 76 -2 c43 -1 83 -2 90 -1 8 1 12 18 12 51 l0 50 -155 0 -155 0 0 -245z"/>
<path d="M259 303 c9 -42 22 -78 28 -80 6 -2 15 17 19 44 5 26 13 48 18 48 5 0 14 -20 20 -44 6 -25 16 -46 22 -48 6 -2 17 31 25 77 9 44 12 80 8 80 -10 0 -16 -20 -25 -75 -8 -55 -18 -45 -28 28 -9 59 -27 58 -39 -4 -13 -66 -24 -68 -32 -5 -5 35 -12 56 -20 56 -10 0 -9 -17 4 -77z"/>
<path d="M420 306 c0 -86 17 -113 22 -34 2 39 7 53 18 53 11 0 16 -13 18 -45 5 -71 24 -76 20 -5 -3 57 -4 60 -30 63 -20 2 -28 9 -28 23 0 10 -4 19 -10 19 -6 0 -10 -31 -10 -74z"/>
<path d="M633 300 c0 -47 2 -66 4 -42 2 23 2 61 0 85 -2 23 -4 4 -4 -43z"/>
<path d="M670 300 c0 -44 4 -80 9 -80 6 0 9 36 8 80 0 44 -4 80 -9 80 -4 0 -8 -36 -8 -80z"/>
<path d="M1360 362 c0 -17 -6 -22 -24 -22 -27 0 -36 -17 -36 -63 0 -44 12 -59 45 -55 27 3 27 4 27 76 0 40 -3 76 -6 79 -3 4 -6 -3 -6 -15z m-5 -83 c0 -32 -4 -44 -15 -44 -16 0 -26 54 -16 82 12 30 31 6 31 -38z"/>
<path d="M1461 302 l-1 -83 32 3 c27 2 33 8 38 33 10 49 -2 80 -32 83 -18 2 -28 10 -31 25 -2 12 -5 -15 -6 -61z m46 16 c12 -21 14 -48 3 -68 -14 -27 -40 -14 -40 20 0 52 19 76 37 48z"/>
<path d="M1710 340 c-11 -40 -5 -85 13 -107 12 -16 49 -17 65 -1 15 15 16 48 2 48 -5 0 -10 -6 -10 -14 0 -19 -23 -36 -38 -27 -18 11 -26 71 -13 104 12 32 41 36 48 7 5 -20 23 -28 23 -11 0 28 -14 41 -46 41 -30 0 -34 -3 -44 -40z"/>
<path d="M2440 370 c0 -5 5 -10 10 -10 6 0 10 5 10 10 0 6 -4 10 -10 10 -5 0 -10 -4 -10 -10z"/>
<path d="M2390 358 c0 -10 -5 -18 -11 -18 -8 0 -8 -4 -1 -13 6 -7 12 -33 14 -57 2 -36 7 -45 23 -48 19 -3 19 -2 3 11 -20 16 -25 76 -8 93 7 7 5 17 -5 30 -13 17 -14 17 -15 2z"/>
<path d="M531 321 c-29 -54 6 -124 51 -100 16 8 18 20 16 62 -3 48 -5 52 -30 55 -18 2 -30 -3 -37 -17z m47 -3 c17 -17 15 -63 -3 -78 -22 -18 -35 -3 -35 39 0 50 13 64 38 39z"/>
<path d="M711 333 c-1 -6 4 -35 11 -63 9 -41 9 -56 -1 -72 -11 -17 -10 -19 5 -16 12 2 25 27 41 78 27 88 25 80 13 80 -5 0 -14 -19 -21 -42 -10 -39 -12 -41 -20 -20 -21 53 -28 66 -28 55z"/>
<path d="M865 317 c-4 -13 -5 -39 -3 -58 3 -30 6 -34 33 -34 36 0 55 38 39 83 -13 38 -61 44 -69 9z m50 -36 c0 -51 -20 -66 -35 -26 -13 35 -3 77 19 73 12 -2 16 -15 16 -47z"/>
<path d="M961 330 c-1 -25 26 -105 35 -105 5 0 11 11 12 25 6 41 19 44 26 6 4 -20 11 -36 15 -36 5 0 15 27 24 60 8 33 11 60 6 60 -4 0 -11 -16 -15 -35 -7 -40 -19 -38 -27 5 -9 41 -21 38 -34 -7 -8 -32 -11 -35 -17 -18 -18 48 -25 60 -25 45z"/>
<path d="M1112 278 c1 -53 2 -56 5 -18 4 44 17 70 34 70 5 0 9 -25 9 -55 0 -32 4 -55 10 -55 7 0 10 22 8 58 -3 56 -3 57 -35 60 l-33 3 2 -63z"/>
<path d="M1217 333 c-26 -44 -12 -113 22 -113 21 0 48 27 37 37 -3 4 -12 -2 -20 -12 -15 -21 -36 -12 -36 16 0 14 7 19 30 19 22 0 30 5 30 18 0 32 -49 59 -63 35z m39 -14 c10 -17 -13 -36 -27 -22 -12 12 -4 33 11 33 5 0 12 -5 16 -11z"/>
<path d="M1553 328 c2 -7 10 -37 18 -67 12 -49 12 -54 -6 -67 -15 -11 -16 -14 -3 -14 22 0 32 17 52 89 19 70 15 97 -5 32 -7 -23 -15 -41 -19 -41 -4 0 -10 18 -14 40 -3 22 -11 40 -17 40 -6 0 -9 -6 -6 -12z"/>
<path d="M1829 313 c-6 -17 -7 -40 -2 -58 7 -25 14 -30 38 -30 24 0 31 5 38 30 12 44 -6 85 -38 85 -19 0 -28 -7 -36 -27z m55 1 c10 -25 7 -72 -5 -80 -22 -13 -42 22 -35 60 7 37 29 48 40 20z"/>
<path d="M1936 324 c-3 -9 -6 -33 -6 -54 0 -51 29 -71 60 -40 22 22 27 79 8 98 -17 17 -55 15 -62 -4z m53 -16 c10 -29 -1 -73 -20 -73 -15 0 -25 55 -15 81 8 21 26 17 35 -8z"/>
<path d="M2031 260 c0 -44 4 -80 9 -80 6 0 10 9 10 20 0 14 7 20 24 20 26 0 36 16 36 60 0 48 -9 60 -45 60 l-34 0 0 -80z m60 47 c7 -16 7 -31 -1 -51 -9 -23 -13 -26 -25 -16 -16 13 -20 47 -9 74 9 23 23 20 35 -7z"/>
<path d="M2144 329 c-4 -6 -7 -28 -7 -49 0 -45 8 -60 32 -60 21 0 47 27 37 37 -3 4 -12 -2 -20 -12 -15 -21 -36 -12 -36 16 0 14 7 19 30 19 32 0 36 9 20 41 -12 21 -45 26 -56 8z m44 -22 c2 -10 -3 -17 -12 -17 -18 0 -29 16 -21 31 9 14 29 6 33 -14z"/>
<path d="M2230 280 c0 -33 4 -60 10 -60 6 0 10 21 10 46 0 33 5 51 18 60 15 12 14 13 -10 14 -27 0 -28 -1 -28 -60z"/>
<path d="M2295 330 c-4 -6 -4 -14 0 -18 4 -4 10 -1 12 6 6 17 33 15 33 -2 0 -7 -11 -21 -25 -30 -14 -9 -25 -25 -25 -35 0 -25 22 -42 39 -31 8 4 19 6 25 4 8 -3 10 14 6 53 -5 54 -7 58 -32 61 -14 2 -29 -2 -33 -8z m41 -85 c-3 -8 -10 -15 -16 -15 -14 0 -12 37 3 43 15 5 21 -8 13 -28z"/>
<path d="M2440 280 c0 -33 4 -60 10 -60 6 0 10 27 10 60 0 33 -4 60 -10 60 -6 0 -10 -27 -10 -60z"/>
<path d="M2489 280 c17 -65 26 -73 41 -36 15 41 24 102 12 91 -6 -5 -12 -20 -14 -33 -5 -33 -22 -32 -28 2 -3 16 -10 31 -16 33 -7 2 -5 -17 5 -57z"/>
<path d="M2576 325 c-11 -30 -6 -82 9 -95 20 -17 49 -9 53 15 4 20 3 20 -11 1 -16 -22 -37 -14 -37 15 0 14 7 19 26 19 22 0 25 4 22 28 -2 21 -9 28 -29 30 -17 2 -29 -3 -33 -13z m50 -6 c8 -14 -18 -31 -30 -19 -9 9 0 30 14 30 5 0 12 -5 16 -11z"/>
<path d="M2677 333 c-14 -14 -6 -38 21 -59 22 -19 25 -25 14 -36 -11 -11 -16 -10 -28 6 -12 17 -14 17 -14 4 0 -23 16 -31 46 -24 34 9 31 43 -6 64 -16 9 -30 20 -30 24 0 14 22 20 33 9 16 -16 27 -14 21 4 -6 15 -45 21 -57 8z"/>
</g>
</svg>