<svg xmlns="http://www.w3.org/2000/svg" version="1.0" width="1548.000000pt" height="532.000000pt" viewBox="0 0 1548.000000 532.000000" preserveAspectRatio="xMidYMid meet">

<g transform="translate(0.000000,532.000000) scale(0.100000,-0.100000)" fill="#ffffff" stroke="none">
<path d="M2260 3995 l0 -895 -865 0 -865 0 0 -441 0 -440 865 3 865 3 0 -817 0 -818 485 0 485 0 0 623 1 622 347 422 c263 321 350 419 358 410 6 -7 287 -477 624 -1044 l613 -1033 370 0 369 0 -14 22 c-31 48 -1530 2572 -1535 2584 -3 8 1199 1487 1355 1667 14 16 -3 17 -355 17 l-371 0 -878 -1119 -879 -1119 -3 1116 c-2 878 -5 1118 -15 1124 -6 4 -225 8 -484 8 l-473 0 0 -895z"/>
<path d="M5960 3097 c0 -1168 4 -1812 10 -1867 35 -281 161 -484 361 -580 123 -59 189 -70 462 -77 l237 -6 0 291 0 291 -177 3 c-205 3 -222 10 -265 96 l-23 47 -3 1793 -2 1792 -300 0 -300 0 0 -1783z"/>
<path d="M8134 3689 c-349 -25 -673 -161 -879 -369 -52 -53 -58 -62 -45 -75 8 -8 107 -77 219 -154 l204 -140 44 31 c73 49 221 115 328 144 91 25 116 28 280 28 151 1 189 -2 235 -18 100 -34 174 -78 230 -135 108 -111 156 -245 167 -468 l6 -133 -491 0 c-647 0 -749 -13 -972 -122 -244 -121 -379 -338 -410 -664 -21 -220 12 -434 94 -599 80 -160 175 -253 341 -335 202 -100 396 -135 715 -127 178 4 218 8 300 29 159 43 270 101 373 196 l47 45 0 -117 0 -116 285 0 285 0 0 1014 c0 1062 -3 1146 -44 1310 -100 394 -380 655 -797 745 -85 18 -330 43 -384 40 -11 -1 -70 -5 -131 -10z m781 -2089 l0 -316 -26 -49 c-44 -87 -129 -135 -301 -172 -67 -15 -129 -18 -323 -18 -263 0 -308 7 -431 64 -148 69 -224 202 -224 389 0 73 21 176 46 223 44 85 144 155 254 178 89 18 95 18 560 17 l445 -1 0 -315z"/>
<path d="M10846 3690 c-689 -50 -1026 -389 -1003 -1009 8 -233 56 -372 169 -496 110 -119 232 -183 438 -229 148 -32 230 -43 480 -61 240 -18 421 -40 505 -61 133 -34 240 -118 265 -209 8 -27 11 -78 8 -129 -10 -195 -129 -317 -369 -377 -123 -30 -399 -38 -540 -14 -216 36 -426 124 -646 271 -70 47 -130 81 -134 77 -4 -4 -84 -102 -178 -218 l-171 -210 47 -43 c83 -74 250 -181 376 -242 147 -71 250 -106 462 -155 l160 -37 300 5 c307 5 388 13 555 56 367 94 594 302 677 620 34 130 43 361 19 508 -28 177 -78 285 -185 397 -186 194 -369 251 -951 296 -444 34 -540 53 -632 123 -64 50 -83 95 -83 202 0 82 3 97 33 157 72 147 221 222 466 237 321 19 603 -56 920 -243 l75 -45 178 216 c98 119 178 218 178 222 -1 14 -180 125 -291 181 -330 164 -730 238 -1128 210z"/>
<path d="M13486 3690 c-344 -25 -595 -120 -765 -291 -177 -176 -251 -405 -238 -729 9 -222 58 -364 169 -485 110 -119 232 -183 438 -229 148 -32 230 -43 480 -61 240 -18 421 -40 505 -61 133 -34 240 -118 265 -209 8 -27 11 -78 8 -129 -10 -195 -129 -317 -369 -377 -123 -30 -399 -38 -540 -14 -216 36 -426 124 -646 271 -70 47 -130 81 -134 77 -4 -4 -84 -102 -178 -218 l-171 -210 47 -43 c83 -74 250 -181 376 -242 147 -71 250 -106 462 -155 l160 -37 300 5 c307 5 388 13 555 56 367 94 594 302 677 620 34 130 43 361 19 508 -28 177 -78 285 -185 397 -186 194 -369 251 -951 296 -444 34 -540 53 -632 123 -64 50 -83 95 -83 202 0 82 3 97 33 157 72 147 221 222 466 237 321 19 603 -56 920 -243 l75 -45 178 216 c98 119 178 218 178 222 -1 14 -180 125 -291 181 -330 164 -730 238 -1128 210z"/>
</g>
</svg>