<svg version="1.0" xmlns="http://www.w3.org/2000/svg"
 width="1366.000000pt" height="289.000000pt" viewBox="0 0 1366.000000 289.000000"
 preserveAspectRatio="xMidYMid meet">

<g transform="translate(0.000000,289.000000) scale(0.100000,-0.100000)"
fill="#ffffff" stroke="none">
<path d="M13295 2711 c-177 -45 -240 -246 -119 -380 97 -107 241 -107 338 0
86 95 85 218 -3 312 -51 56 -147 86 -216 68z m143 -52 c63 -31 96 -85 100
-168 3 -59 0 -71 -27 -113 -55 -86 -166 -116 -256 -70 -72 36 -105 92 -105
178 0 150 149 240 288 173z"/>
<path d="M13242 2483 c3 -124 4 -128 26 -131 20 -3 22 0 22 47 l0 51 43 0 c53
0 77 -22 77 -69 0 -28 3 -32 23 -29 19 3 22 8 20 42 -2 22 -10 47 -19 57 -15
16 -14 19 5 40 28 30 27 64 -4 94 -22 23 -32 25 -110 25 l-86 0 3 -127z m152
81 c22 -9 20 -51 -3 -64 -11 -5 -38 -10 -60 -10 l-41 0 0 40 0 40 44 0 c24 0
51 -3 60 -6z"/>
<path d="M615 2230 c-263 -38 -427 -190 -442 -407 -18 -254 132 -374 607 -489
194 -47 272 -70 348 -106 117 -55 162 -112 162 -204 0 -140 -90 -234 -259
-270 -86 -18 -306 -18 -393 1 -180 38 -290 136 -322 287 l-6 28 -96 0 -96 0 7
-42 c30 -181 128 -313 288 -388 128 -60 213 -75 412 -74 201 0 280 15 403 74
137 65 216 164 242 300 15 79 12 131 -11 206 -18 58 -30 77 -82 129 -105 103
-187 137 -570 235 -253 66 -350 104 -409 165 -42 43 -54 82 -43 153 18 127
119 203 310 232 142 22 316 -2 417 -57 83 -45 132 -111 164 -221 3 -9 27 -12
96 -10 l93 3 -3 30 c-21 209 -202 375 -459 420 -82 15 -274 18 -358 5z"/>
<path d="M5382 2229 c-155 -26 -276 -91 -399 -214 -80 -80 -97 -105 -141 -196
-75 -156 -87 -211 -87 -419 0 -186 8 -235 59 -362 40 -99 88 -170 171 -254
162 -163 358 -235 605 -220 292 16 528 164 650 406 53 105 55 100 -53 100
l-95 0 -32 -57 c-45 -79 -144 -174 -221 -212 -213 -104 -524 -67 -697 85 -268
235 -282 742 -27 1000 117 118 265 174 458 174 209 -1 383 -96 481 -264 l39
-66 94 0 c110 0 108 -7 41 121 -96 187 -284 325 -503 370 -96 20 -249 23 -343
8z"/>
<path d="M10445 2225 c-158 -29 -277 -90 -397 -204 -178 -168 -258 -362 -258
-622 0 -239 71 -426 223 -585 124 -132 266 -208 442 -239 303 -53 580 34 775
242 151 162 220 344 220 582 0 260 -80 454 -258 622 -122 115 -239 175 -402
205 -93 17 -252 16 -345 -1z m330 -180 c89 -19 215 -81 281 -139 293 -258 278
-797 -28 -1033 -118 -91 -237 -128 -408 -128 -135 0 -196 13 -307 66 -389 185
-462 802 -129 1095 64 56 191 120 276 138 86 19 228 19 315 1z"/>
<path d="M12125 2230 c-263 -38 -427 -190 -442 -407 -18 -254 132 -374 607
-489 194 -47 272 -70 348 -106 117 -55 162 -112 162 -204 0 -140 -90 -234
-259 -270 -86 -18 -306 -18 -393 1 -180 38 -290 136 -322 287 l-6 28 -96 0
-96 0 7 -42 c30 -181 128 -313 288 -388 128 -60 213 -75 412 -74 201 0 280 15
403 74 137 65 216 164 242 300 15 79 12 131 -11 206 -18 58 -30 77 -82 129
-105 103 -187 137 -570 235 -253 66 -350 104 -409 165 -42 43 -54 82 -43 153
18 127 119 203 310 232 142 22 316 -2 417 -57 83 -45 132 -111 164 -221 3 -9
27 -12 96 -10 l93 3 -3 30 c-21 209 -202 375 -459 420 -82 15 -274 18 -358 5z"/>
<path d="M1770 1400 l0 -820 95 0 95 0 0 295 0 295 333 0 c265 0 345 3 392 15
188 48 316 168 369 345 22 72 22 244 1 324 -34 130 -118 234 -240 298 -120 63
-170 68 -635 68 l-410 0 0 -820z m800 639 c148 -18 236 -76 289 -188 22 -48
26 -70 26 -151 0 -127 -21 -187 -89 -256 -34 -33 -72 -59 -111 -75 -58 -23
-69 -24 -392 -27 l-333 -3 0 355 0 356 263 0 c144 0 301 -5 347 -11z"/>
<path d="M3411 1413 c-189 -445 -345 -814 -348 -820 -4 -10 20 -13 98 -13
l104 1 69 167 c39 92 84 200 102 240 l33 72 403 0 404 0 100 -237 101 -238
101 -3 c56 -1 102 0 102 3 0 5 -654 1549 -683 1612 -10 22 -14 23 -127 23
l-116 0 -343 -807z m640 185 c82 -197 149 -360 149 -363 0 -3 -149 -5 -331 -5
-261 0 -330 3 -326 13 19 48 312 746 319 761 10 17 12 16 25 -15 8 -19 82
-195 164 -391z"/>
<path d="M6560 1400 l0 -820 605 0 605 0 0 90 0 90 -510 0 -510 0 0 275 0 275
455 0 455 0 0 90 0 90 -455 0 -455 0 0 275 0 275 510 0 510 0 0 90 0 90 -605
0 -605 0 0 -820z"/>
<path d="M8070 1400 l0 -820 95 0 95 0 0 691 0 691 506 -691 505 -691 110 0
109 0 0 820 0 820 -95 0 -95 0 -2 -686 -3 -686 -504 686 -503 686 -109 0 -109
0 0 -820z"/>
</g>
</svg>